<?xml version="1.0" encoding="utf-8"?>
<!-- Generator: Adobe Illustrator 19.0.0, SVG Export Plug-In . SVG Version: 6.00 Build 0)  -->
<svg version="1.1" id="Layer_1" xmlns="http://www.w3.org/2000/svg" xmlns:xlink="http://www.w3.org/1999/xlink" x="0px" y="0px"
	 viewBox="0 0 720 720" enable-background="new 0 0 720 720" xml:space="preserve">
<g id="XMLID_673_">
	<linearGradient id="XMLID_2_" gradientUnits="userSpaceOnUse" x1="216.5654" y1="593.276" x2="503.3372" y2="96.5726">
		<stop  offset="0" style="stop-color:#FFFFFF"/>
		<stop  offset="0.1729" style="stop-color:#FAFCFE"/>
		<stop  offset="0.377" style="stop-color:#ECF2F9"/>
		<stop  offset="0.597" style="stop-color:#D4E1F2"/>
		<stop  offset="0.8266" style="stop-color:#B3CAE8"/>
		<stop  offset="1" style="stop-color:#95B5DF"/>
	</linearGradient>
	<ellipse id="XMLID_727_" fill="url(#XMLID_2_)" cx="360" cy="344.9" rx="285.8" ry="287"/>
	<g id="XMLID_699_">
		<g id="XMLID_720_">
			<g id="XMLID_725_">
				<polygon id="XMLID_726_" fill="#7095CD" points="294.9,548.5 294.9,548.5 344.8,383.8 353.1,384.1 358.8,388.6 				"/>
			</g>
			<g id="XMLID_723_">
				<polygon id="XMLID_724_" fill="#7095CD" points="327.9,386.9 299.6,519.4 299.6,519.4 340.8,385.1 				"/>
			</g>
			<g id="XMLID_721_">
				<polygon id="XMLID_722_" fill="#7095CD" points="369.2,402.3 309.5,522 309.5,522 360.4,392.5 				"/>
			</g>
		</g>
		<g id="XMLID_700_">
			<path id="XMLID_718_" fill="#333333" d="M324,334.5c0,0-0.2-6.2,0.4,35.2l31.4,5.6l29,13c23.5-27.9,24.2-27.6,24.2-27.6
				L324,334.5z"/>
			<path id="XMLID_716_" fill="#3F66B0" d="M473,231.2c3.2-69.8-32-119.5-32-119.5s-58,20.9-96.4,79.8c0,0-16.8,36.9-31.6,168.4
				l45.4,7.5l41.6,19.4C465.1,270.9,473,231.2,473,231.2z"/>
			<path id="XMLID_715_" fill="#233C77" d="M308.1,359l-20.9,16.2l-27.3-1.3c9.5-71.7,59.7-81.6,59.7-81.6L308.1,359z"/>
			<path id="XMLID_714_" fill="#233C77" d="M403.1,390l2.8,17.9l27.7,21c35.3-63.9,1.9-102.5,1.9-102.5L403.1,390z"/>
			<path id="XMLID_713_" fill="#233C77" d="M441,111.7c0,0-20.5,7.8-38.3,20.8c0,0,41.7,6.5,58,19.4
				C460.7,151.9,454,131.3,441,111.7z"/>
			<path id="XMLID_712_" fill="#233C77" d="M373.2,313c0,0-25.2,26.4-28.5,89.3c0,0,1.9-3.6,4.8-9.5
				C358,375.4,374.6,337.9,373.2,313z"/>
			<path id="XMLID_711_" fill="#233C77" d="M259.8,373.9"/>
			<path id="XMLID_710_" fill="#233C77" d="M344.6,191.5c0,0,58.9-4.1,128.4,39.7"/>
			<circle id="XMLID_709_" fill="#233C77" cx="401.7" cy="203.6" r="30.7"/>
			<circle id="XMLID_708_" fill="#FFFFFF" cx="401.7" cy="203.6" r="26.4"/>
			<circle id="XMLID_707_" fill="#233C77" cx="454.1" cy="161.1" r="3.5"/>
			<circle id="XMLID_706_" fill="#233C77" cx="459.2" cy="177.7" r="3.5"/>
			<circle id="XMLID_705_" fill="#233C77" cx="462.4" cy="194.8" r="3.5"/>
			<circle id="XMLID_704_" fill="#233C77" cx="463.6" cy="213.6" r="3.5"/>
			<path id="XMLID_703_" fill="#7797CE" d="M379.3,212.1c0,0-3.8-20,9-27.4c0,0,4.3-3.3,10.9-3.6
				C399.2,181.1,380.5,186.2,379.3,212.1z"/>
			<path id="XMLID_702_" fill="#BDD0EC" d="M356,184.2c0,0,22.7-31,46.1-43.8C402,140.4,377.5,161.4,356,184.2z"/>
			<path id="XMLID_701_" fill="#BDD0EC" d="M442.6,114.2c0,0-17,5.1-28.1,10.5c0,0,13.8-8.4,26.4-13.1
				C441,111.7,441.9,113.1,442.6,114.2z"/>
		</g>
	</g>
	
		<ellipse id="XMLID_698_" fill="none" stroke="#3F66B0" stroke-width="18" stroke-miterlimit="10" cx="360" cy="344.9" rx="285.8" ry="287"/>
	<g id="XMLID_675_">
		<defs>
			<ellipse id="XMLID_676_" cx="360" cy="344.9" rx="271.9" ry="273.1"/>
		</defs>
		<clipPath id="XMLID_3_">
			<use xlink:href="#XMLID_676_"  overflow="visible"/>
		</clipPath>
		<g id="XMLID_677_" clip-path="url(#XMLID_3_)">
			<circle id="XMLID_697_" fill="#5079BC" cx="167.6" cy="439.3" r="42.7"/>
			<circle id="XMLID_696_" fill="#5079BC" cx="248" cy="481.9" r="32.1"/>
			<circle id="XMLID_695_" fill="#5079BC" cx="217.6" cy="458.9" r="24.1"/>
			<circle id="XMLID_694_" fill="#5079BC" cx="122.5" cy="450.5" r="24.1"/>
			<ellipse id="XMLID_693_" fill="#5079BC" cx="385.1" cy="529.5" rx="56.4" ry="40.9"/>
			<ellipse id="XMLID_692_" fill="#5079BC" cx="302.4" cy="517.8" rx="41.5" ry="34.9"/>
			<ellipse id="XMLID_691_" fill="#5079BC" cx="473.1" cy="490.8" rx="58.4" ry="49.9"/>
			<ellipse id="XMLID_690_" fill="#5079BC" cx="293.5" cy="485.7" rx="26.3" ry="22"/>
			<ellipse id="XMLID_689_" fill="#375FA1" cx="170.7" cy="499.2" rx="62.8" ry="58.3"/>
			<ellipse id="XMLID_688_" fill="#375FA1" cx="258.8" cy="545.4" rx="52.3" ry="54.6"/>
			<ellipse id="XMLID_687_" fill="#375FA1" cx="348.6" cy="556.8" rx="37.5" ry="34.9"/>
			<ellipse id="XMLID_686_" fill="#375FA1" cx="449.4" cy="563.3" rx="64.3" ry="49.3"/>
			<ellipse id="XMLID_685_" fill="#375FA1" cx="511.6" cy="536.7" rx="29.5" ry="35.9"/>
			<ellipse id="XMLID_684_" fill="#375FA1" cx="541.1" cy="531.6" rx="29.5" ry="23.8"/>
			<ellipse id="XMLID_683_" fill="#294D80" cx="312" cy="565.2" rx="31.9" ry="30.1"/>
			<ellipse id="XMLID_682_" fill="#294D80" cx="206.5" cy="565.2" rx="53.1" ry="40.7"/>
			<ellipse id="XMLID_681_" fill="#294D80" cx="267.9" cy="594.4" rx="34.4" ry="41.7"/>
			<ellipse id="XMLID_680_" fill="#294D80" cx="357.4" cy="605.6" rx="60.9" ry="40.4"/>
			<ellipse id="XMLID_679_" fill="#294D80" cx="449.4" cy="614.2" rx="57.7" ry="50.8"/>
			<ellipse id="XMLID_678_" fill="#294D80" cx="134.8" cy="535.1" rx="46.7" ry="29.7"/>
		</g>
	</g>
	<path id="XMLID_674_" fill="#7095CD" d="M318.8,297.1c0,0-31.6,10.3-44.5,48.5C274.3,345.6,290.8,310.6,318.8,297.1z"/>
</g>
<g id="XMLID_614_">
	<path id="XMLID_672_" fill="#295297" d="M-0.1,618.8v-75.3H22c5.9,0,10.3,0.5,13.6,1.5c3.9,1.2,7.1,3.6,9.5,7.1
		c2.3,3.4,3.4,8.4,3.4,15.1c0,5.1-0.9,8.7-2.9,11.2c0,0-0.1,0.1-0.1,0.1c0.5,0.5,0.9,1,1.2,1.5c2,3,3,7,3,12.3v6c0,5.2-0.7,9.1-2,12
		c-1.6,3.4-4.3,5.8-7.8,7c-1.9,0.7-5.4,1.5-15.2,1.5H-0.1z"/>
	<path id="XMLID_668_" fill="#FFFFFF" d="M5.1,548.7H22c5.3,0,9.3,0.4,12.1,1.2c2.7,0.8,4.9,2.5,6.6,5s2.5,6.6,2.5,12.2
		c0,3.8-0.6,6.4-1.8,7.9c-1.2,1.5-3.5,2.6-7,3.4c3.9,0.9,6.5,2.3,7.9,4.4c1.4,2,2.1,5.2,2.1,9.4v6c0,4.4-0.5,7.6-1.5,9.7
		c-1,2.1-2.6,3.6-4.8,4.3c-2.2,0.8-6.7,1.2-13.5,1.2H5.1V548.7z M22,559.8v14.4c0.7,0,1.3,0,1.7,0c1.7,0,2.7-0.4,3.2-1.2
		c0.5-0.8,0.7-3.1,0.7-7c0-2-0.2-3.5-0.6-4.3c-0.4-0.8-0.9-1.3-1.5-1.5C24.9,559.9,23.7,559.8,22,559.8z M22,584.3v18.1
		c2.4-0.1,3.9-0.5,4.5-1.1c0.7-0.7,1-2.3,1-4.9v-6c0-2.8-0.3-4.5-0.9-5C26.1,584.7,24.5,584.4,22,584.3z"/>
	<polygon id="XMLID_667_" fill="#295297" points="45.2,618.8 45.2,543.4 72.5,543.4 72.5,595.3 82.8,595.3 82.8,618.8 	"/>
	<path id="XMLID_666_" fill="#295297" d="M101.3,620.1c-4.6,0-8.7-0.8-12.3-2.4c-3.8-1.7-6.8-3.9-8.8-6.8c-2-2.8-3.2-5.8-3.5-8.9
		c-0.3-2.5-0.4-7.4-0.4-15v-43.6h49.1V592c0,5.2-0.2,8.9-0.5,11.2c-0.5,2.8-1.7,5.7-3.8,8.4c-2.1,2.8-5,5-8.4,6.5
		C109.2,619.4,105.5,620.1,101.3,620.1z"/>
	<path id="XMLID_664_" fill="#FFFFFF" d="M67.3,548.7v51.9h10.3v13H50.4v-64.8H67.3z"/>
	<path id="XMLID_662_" fill="#FFFFFF" d="M120,548.7V592c0,4.9-0.2,8.4-0.5,10.4c-0.3,2-1.3,4-2.8,6.1c-1.6,2.1-3.7,3.7-6.2,4.8
		c-2.6,1.1-5.6,1.6-9.1,1.6c-3.9,0-7.3-0.6-10.3-1.9c-3-1.3-5.2-3-6.6-5c-1.5-2.1-2.3-4.2-2.6-6.5c-0.3-2.3-0.4-7.1-0.4-14.4v-38.4
		h16.9v48.6c0,2.8,0.2,4.6,0.5,5.4c0.3,0.8,0.9,1.2,1.9,1.2c1.1,0,1.8-0.4,2.1-1.3c0.3-0.9,0.5-2.9,0.5-6.1v-47.8H120z"/>
	<polygon id="XMLID_661_" fill="#295297" points="121.3,618.8 121.3,543.4 159.9,543.4 159.9,566.9 148.6,566.9 148.6,568.7 
		159.1,568.7 159.1,591.5 148.6,591.5 148.6,595.3 161,595.3 161,618.8 	"/>
	<path id="XMLID_659_" fill="#FFFFFF" d="M126.5,548.7h28.1v13h-11.3V574h10.5v12.3h-10.5v14.3h12.4v13h-29.2V548.7z"/>
	<path id="XMLID_658_" fill="#295297" d="M169.8,618.8v-75.3H187c8.5,0,14,0.3,17.3,1c4.1,0.9,7.5,3.2,10.1,6.8
		c2.4,3.5,3.6,8.4,3.6,15.1c0,6.3-0.9,10.5-2.9,13.2c-0.1,0.2-0.3,0.4-0.5,0.6c1.4,1.8,2.3,3.6,2.8,5.4c0.3,1.2,0.6,3.4,0.6,10.8
		v22.3H169.8z"/>
	<path id="XMLID_655_" fill="#FFFFFF" d="M175,548.7H187c8,0,13.3,0.3,16.2,0.9c2.8,0.6,5.1,2.2,6.9,4.7c1.8,2.5,2.7,6.5,2.7,12.1
		c0,5-0.6,8.4-1.9,10.2c-1.3,1.7-3.7,2.8-7.4,3.1c3.3,0.8,5.6,1.9,6.7,3.3c1.1,1.4,1.9,2.7,2.1,3.8c0.3,1.2,0.4,4.4,0.4,9.6v17.1
		H197V592c0-3.5-0.3-5.6-0.8-6.4c-0.5-0.8-2-1.2-4.3-1.2v29.2H175V548.7z M191.9,559.8v14.4c1.9,0,3.2-0.3,4-0.8
		c0.8-0.5,1.1-2.2,1.1-5.1v-3.6c0-2.1-0.4-3.4-1.1-4C195.2,560.1,193.9,559.8,191.9,559.8z"/>
	<path id="XMLID_654_" fill="#295297" d="M238.3,620.1c-4.1,0-8-0.7-11.3-2.1c-3.6-1.5-6.6-3.8-8.9-6.8c-2.2-3-3.6-6.3-4-9.9
		c-0.3-2.9-0.5-7.7-0.5-14.6v-11.1c0-6.8,0.2-11.5,0.5-14.4c0.4-3.6,1.7-6.9,3.8-9.9c2.2-3,5.1-5.3,8.7-6.9
		c3.4-1.5,7.3-2.2,11.7-2.2c4.1,0,8,0.7,11.3,2.1c3.6,1.5,6.6,3.8,8.9,6.8c2.2,3,3.6,6.3,4,9.9c0.3,2.9,0.5,7.7,0.5,14.6v11.1
		c0,6.8-0.2,11.5-0.5,14.4c-0.4,3.6-1.7,6.9-3.8,9.9c-2.2,3-5.1,5.3-8.7,6.9C246.6,619.4,242.6,620.1,238.3,620.1z"/>
	<path id="XMLID_651_" fill="#FFFFFF" d="M257.8,586.7c0,6.5-0.2,11.1-0.5,13.8c-0.3,2.7-1.3,5.2-2.9,7.4c-1.6,2.2-3.8,4-6.5,5.2
		c-2.8,1.2-6,1.8-9.6,1.8c-3.5,0-6.6-0.6-9.4-1.7c-2.8-1.1-5-2.8-6.7-5.1c-1.7-2.3-2.7-4.7-3-7.4c-0.3-2.7-0.5-7.3-0.5-14v-11.1
		c0-6.5,0.2-11.1,0.5-13.8c0.3-2.7,1.3-5.2,2.9-7.4c1.6-2.2,3.8-4,6.5-5.2c2.8-1.2,6-1.8,9.6-1.8c3.5,0,6.6,0.6,9.4,1.7
		s5,2.8,6.7,5.1c1.7,2.3,2.7,4.7,3,7.4c0.3,2.7,0.5,7.3,0.5,14V586.7z M240.9,565.3c0-3-0.2-4.9-0.5-5.8s-1-1.3-2.1-1.3
		c-0.9,0-1.6,0.3-2,1c-0.5,0.7-0.7,2.7-0.7,6v30.3c0,3.8,0.2,6.1,0.5,7c0.3,0.9,1,1.3,2.1,1.3c1.1,0,1.9-0.5,2.2-1.5
		c0.3-1,0.5-3.4,0.5-7.2V565.3z"/>
	<path id="XMLID_650_" fill="#295297" d="M283.7,620.1c-5.8,0-10.8-1.1-14.8-3.3c-4.4-2.4-7.3-5.9-8.8-10.4
		c-1.2-3.7-1.8-8.9-1.8-15.9v-18.9c0-5,0.2-8.6,0.5-11.2c0.4-3.2,1.7-6.3,3.8-9.1c2.1-2.9,5.1-5.2,8.7-6.8c3.5-1.5,7.5-2.3,11.8-2.3
		c5.9,0,10.9,1.2,15,3.6c4.3,2.6,7.2,5.9,8.6,9.9c1.2,3.5,1.8,8.4,1.8,15.1v11.4h-23v0.1h23v7.8c0,7.4-0.6,12.6-1.7,16
		c-1.3,3.9-4.2,7.3-8.4,10.1C294.5,618.8,289.5,620.1,283.7,620.1z"/>
	<path id="XMLID_648_" fill="#FFFFFF" d="M303.4,576.9h-16.9v-11.3c0-3.3-0.2-5.3-0.5-6.1s-1.2-1.2-2.4-1.2c-1.4,0-2.3,0.5-2.6,1.5
		s-0.6,3.1-0.6,6.4v30.1c0,3.2,0.2,5.2,0.6,6.2c0.4,1,1.2,1.4,2.5,1.4c1.3,0,2.1-0.5,2.5-1.4c0.4-1,0.6-3.2,0.6-6.8v-8.2h16.9v2.5
		c0,6.7-0.5,11.5-1.4,14.3c-0.9,2.8-3,5.3-6.3,7.4c-3.2,2.1-7.2,3.2-12,3.2c-4.9,0-9-0.9-12.2-2.7c-3.2-1.8-5.3-4.3-6.4-7.4
		c-1-3.2-1.6-7.9-1.6-14.3v-18.9c0-4.7,0.2-8.2,0.5-10.5c0.3-2.3,1.3-4.6,2.9-6.7c1.6-2.2,3.8-3.9,6.6-5.1c2.8-1.2,6.1-1.9,9.7-1.9
		c5,0,9.1,1,12.3,2.9c3.2,1.9,5.4,4.3,6.4,7.2c1,2.9,1.5,7.3,1.5,13.4V576.9z"/>
	<polygon id="XMLID_647_" fill="#295297" points="304.2,618.8 304.2,543.4 356.9,543.4 345.5,578 357.6,618.8 	"/>
	<polygon id="XMLID_646_" fill="#295297" points="348.2,618.8 348.2,543.4 386.8,543.4 386.8,566.9 375.6,566.9 375.6,568.7 
		386.1,568.7 386.1,591.5 375.6,591.5 375.6,595.3 388,595.3 388,618.8 	"/>
	<path id="XMLID_644_" fill="#FFFFFF" d="M349.7,548.7L340,578l10.6,35.6h-17.4l-6.8-27.8v27.8h-16.9v-64.8h16.9v25.2l7.5-25.2
		H349.7z"/>
	<polygon id="XMLID_643_" fill="#295297" points="388.3,618.8 388.3,566.9 378.4,566.9 378.4,543.4 425.7,543.4 425.7,566.9 
		415.7,566.9 415.7,618.8 	"/>
	<path id="XMLID_641_" fill="#FFFFFF" d="M353.5,548.7h28.1v13h-11.3V574h10.5v12.3h-10.5v14.3h12.4v13h-29.2V548.7z"/>
	<path id="XMLID_639_" fill="#FFFFFF" d="M420.5,548.7v13h-10v51.9h-16.9v-51.9h-10v-13H420.5z"/>
	<path id="XMLID_638_" fill="#295297" d="M457.2,620.1c-5.4,0-10.1-1.1-14-3.2c-4.3-2.3-7.3-5.5-8.7-9.3c-1.2-3.3-1.8-7.5-1.8-13.1
		v-9.5h8.3c-1-0.8-1.8-1.4-2.4-2c-1.9-1.8-3.5-4.2-4.7-7.1c-1.2-2.9-1.7-6.3-1.7-10.5c0-5.9,0.8-10.3,2.6-13.4
		c1.8-3.3,4.7-5.9,8.6-7.6c3.5-1.6,7.7-2.4,12.4-2.4c5.1,0,9.6,0.9,13.4,2.6c4.2,1.9,7.2,4.6,8.7,7.9c1.4,2.9,2,7.1,2,13.2v7.8h-9.3
		c3.2,2.4,5.5,4.6,6.8,6.6c2.6,3.8,3.8,9.3,3.8,16.8c0,5.5-0.7,9.6-2.2,12.5c-1.6,3.3-4.5,5.9-8.7,7.9
		C466.5,619.2,462.1,620.1,457.2,620.1z"/>
	<polygon id="XMLID_637_" fill="#295297" points="483,618.8 483,566.9 473,566.9 473,543.4 520.4,543.4 520.4,566.9 510.4,566.9 
		510.4,618.8 	"/>
	<path id="XMLID_635_" fill="#FFFFFF" d="M474.5,568.3h-15.7v-4.8c0-2.2-0.2-3.7-0.6-4.3c-0.4-0.6-1.1-0.9-2-0.9
		c-1,0-1.8,0.4-2.3,1.2c-0.5,0.8-0.8,2.1-0.8,3.8c0,2.2,0.3,3.8,0.9,4.9c0.6,1.1,2.1,2.4,4.8,4c7.5,4.5,12.2,8.1,14.2,11
		c1.9,2.9,2.9,7.5,2.9,13.8c0,4.6-0.5,8-1.6,10.2c-1.1,2.2-3.2,4-6.3,5.5c-3.1,1.5-6.7,2.2-10.8,2.2c-4.5,0-8.4-0.9-11.6-2.6
		c-3.2-1.7-5.3-3.9-6.3-6.5c-1-2.6-1.5-6.4-1.5-11.3v-4.2h15.7v7.9c0,2.4,0.2,4,0.7,4.7c0.4,0.7,1.2,1,2.3,1c1.1,0,2-0.4,2.5-1.3
		c0.5-0.9,0.8-2.2,0.8-3.9c0-3.8-0.5-6.3-1.6-7.5c-1.1-1.2-3.7-3.1-7.9-5.9c-4.2-2.8-7-4.8-8.3-6c-1.4-1.3-2.5-3-3.4-5.2
		c-0.9-2.2-1.3-5-1.3-8.5c0-5,0.6-8.6,1.9-10.9c1.3-2.3,3.3-4.1,6.1-5.4c2.8-1.3,6.2-1.9,10.3-1.9c4.4,0,8.1,0.7,11.2,2.1
		c3.1,1.4,5.1,3.2,6.1,5.3c1,2.2,1.5,5.8,1.5,11V568.3z"/>
	<path id="XMLID_633_" fill="#FFFFFF" d="M515.1,548.7v13h-10v51.9h-16.9v-51.9h-10v-13H515.1z"/>
	<path id="XMLID_632_" fill="#295297" d="M538.6,620.1c-4.6,0-8.7-0.8-12.3-2.4c-3.8-1.7-6.8-3.9-8.8-6.8c-2-2.8-3.2-5.8-3.5-8.9
		c-0.3-2.5-0.4-7.4-0.4-15v-43.6h49.1V592c0,5.2-0.2,8.9-0.5,11.2c-0.5,2.8-1.7,5.7-3.8,8.4c-2.1,2.8-5,5-8.4,6.5
		C546.6,619.4,542.8,620.1,538.6,620.1z"/>
	<path id="XMLID_630_" fill="#FFFFFF" d="M557.3,548.7V592c0,4.9-0.2,8.4-0.5,10.4c-0.3,2-1.3,4-2.8,6.1c-1.6,2.1-3.7,3.7-6.2,4.8
		c-2.6,1.1-5.6,1.6-9.1,1.6c-3.9,0-7.3-0.6-10.3-1.9c-3-1.3-5.2-3-6.6-5c-1.5-2.1-2.3-4.2-2.6-6.5c-0.3-2.3-0.4-7.1-0.4-14.4v-38.4
		h16.9v48.6c0,2.8,0.2,4.6,0.5,5.4c0.3,0.8,0.9,1.2,1.9,1.2c1.1,0,1.8-0.4,2.1-1.3c0.3-0.9,0.5-2.9,0.5-6.1v-47.8H557.3z"/>
	<path id="XMLID_629_" fill="#295297" d="M558.6,618.8v-75.3h17.9c8.8,0,14.5,0.4,17.8,1.3c3.9,1,7,2.8,9.2,5.3
		c2.1,2.4,3.5,5.2,4,8.2c0.4,2.5,0.6,6.7,0.6,13.3v22.7c0,8.5-0.6,11.5-1,13.1c-0.8,3-2.4,5.5-4.6,7.3c-2,1.6-4.4,2.8-7.2,3.4
		c-2.4,0.5-5.7,0.8-10.2,0.8H558.6z"/>
	<rect id="XMLID_628_" x="603.9" y="543.4" fill="#295297" width="27.3" height="75.3"/>
	<path id="XMLID_625_" fill="#FFFFFF" d="M563.8,548.7h12.6c8.1,0,13.7,0.4,16.5,1.1c2.9,0.7,5.1,2,6.5,3.7c1.5,1.7,2.4,3.6,2.8,5.7
		c0.4,2.1,0.6,6.2,0.6,12.4v22.7c0,5.8-0.3,9.7-0.8,11.7c-0.5,2-1.5,3.5-2.9,4.6c-1.4,1.1-3,1.9-5,2.3c-2,0.4-5,0.7-9.1,0.7h-21.3
		V548.7z M580.7,559.8v42.7c2.4,0,3.9-0.5,4.5-1.5c0.6-1,0.8-3.6,0.8-7.9v-25.2c0-2.9-0.1-4.8-0.3-5.6c-0.2-0.8-0.6-1.4-1.3-1.8
		C583.8,560,582.5,559.8,580.7,559.8z"/>
	<path id="XMLID_623_" fill="#FFFFFF" d="M626,548.7v64.8h-16.9v-64.8H626z"/>
	<path id="XMLID_622_" fill="#295297" d="M651.8,620.1c-4.1,0-8-0.7-11.3-2.1c-3.6-1.5-6.6-3.8-8.9-6.8c-2.2-3-3.6-6.3-4-9.9
		c-0.3-2.9-0.5-7.7-0.5-14.6v-11.1c0-6.8,0.2-11.5,0.5-14.4c0.4-3.6,1.7-6.9,3.8-9.9c2.2-3,5.1-5.3,8.7-6.9
		c3.4-1.5,7.3-2.2,11.7-2.2c4.1,0,8,0.7,11.3,2.1c3.6,1.5,6.6,3.8,8.9,6.8c2.2,3,3.6,6.3,4,9.9c0.3,2.9,0.5,7.7,0.5,14.6v11.1
		c0,6.8-0.2,11.5-0.5,14.4c-0.4,3.6-1.7,6.9-3.8,9.9c-2.2,3-5.1,5.3-8.7,6.9C660.1,619.4,656.2,620.1,651.8,620.1z"/>
	<path id="XMLID_619_" fill="#FFFFFF" d="M671.3,586.7c0,6.5-0.2,11.1-0.5,13.8c-0.3,2.7-1.3,5.2-2.9,7.4c-1.6,2.2-3.8,4-6.5,5.2
		c-2.8,1.2-6,1.8-9.6,1.8c-3.5,0-6.6-0.6-9.4-1.7c-2.8-1.1-5-2.8-6.7-5.1c-1.7-2.3-2.7-4.7-3-7.4c-0.3-2.7-0.5-7.3-0.5-14v-11.1
		c0-6.5,0.2-11.1,0.5-13.8c0.3-2.7,1.3-5.2,2.9-7.4c1.6-2.2,3.8-4,6.5-5.2s6-1.8,9.6-1.8c3.5,0,6.6,0.6,9.4,1.7
		c2.8,1.1,5,2.8,6.7,5.1c1.7,2.3,2.7,4.7,3,7.4c0.3,2.7,0.5,7.3,0.5,14V586.7z M654.5,565.3c0-3-0.2-4.9-0.5-5.8s-1-1.3-2.1-1.3
		c-0.9,0-1.6,0.3-2,1c-0.5,0.7-0.7,2.7-0.7,6v30.3c0,3.8,0.2,6.1,0.5,7c0.3,0.9,1,1.3,2.1,1.3c1.1,0,1.9-0.5,2.2-1.5
		c0.3-1,0.5-3.4,0.5-7.2V565.3z"/>
	<path id="XMLID_618_" fill="#295297" d="M696.1,620.1c-5.4,0-10.1-1.1-14-3.2c-4.3-2.3-7.3-5.5-8.7-9.3c-1.2-3.3-1.8-7.5-1.8-13.1
		v-9.5h8.3c-1-0.8-1.8-1.4-2.4-2c-1.9-1.8-3.5-4.2-4.7-7.1c-1.2-2.9-1.7-6.3-1.7-10.5c0-5.9,0.8-10.3,2.6-13.4
		c1.8-3.3,4.7-5.9,8.6-7.6c3.5-1.6,7.7-2.4,12.4-2.4c5.1,0,9.6,0.9,13.4,2.6c4.2,1.9,7.2,4.6,8.7,7.9c1.4,2.9,2,7.1,2,13.2v7.8h-9.3
		c3.2,2.4,5.5,4.6,6.8,6.6c2.6,3.8,3.8,9.3,3.8,16.8c0,5.5-0.7,9.6-2.2,12.5c-1.6,3.3-4.5,5.9-8.7,7.9
		C705.3,619.2,700.9,620.1,696.1,620.1z"/>
	<path id="XMLID_616_" fill="#FFFFFF" d="M713.4,568.3h-15.7v-4.8c0-2.2-0.2-3.7-0.6-4.3c-0.4-0.6-1.1-0.9-2-0.9
		c-1,0-1.8,0.4-2.3,1.2c-0.5,0.8-0.8,2.1-0.8,3.8c0,2.2,0.3,3.8,0.9,4.9c0.6,1.1,2.1,2.4,4.8,4c7.5,4.5,12.2,8.1,14.2,11
		c1.9,2.9,2.9,7.5,2.9,13.8c0,4.6-0.5,8-1.6,10.2c-1.1,2.2-3.2,4-6.3,5.5c-3.1,1.5-6.7,2.2-10.8,2.2c-4.5,0-8.4-0.9-11.6-2.6
		c-3.2-1.7-5.3-3.9-6.3-6.5c-1-2.6-1.5-6.4-1.5-11.3v-4.2h15.7v7.9c0,2.4,0.2,4,0.7,4.7c0.4,0.7,1.2,1,2.3,1s2-0.4,2.5-1.3
		c0.5-0.9,0.8-2.2,0.8-3.9c0-3.8-0.5-6.3-1.6-7.5c-1.1-1.2-3.7-3.1-7.9-5.9c-4.2-2.8-7-4.8-8.3-6c-1.4-1.3-2.5-3-3.4-5.2
		c-0.9-2.2-1.3-5-1.3-8.5c0-5,0.6-8.6,1.9-10.9c1.3-2.3,3.3-4.1,6.1-5.4c2.8-1.3,6.2-1.9,10.3-1.9c4.4,0,8.1,0.7,11.2,2.1
		c3.1,1.4,5.1,3.2,6.1,5.3c1,2.2,1.5,5.8,1.5,11V568.3z"/>
</g>
</svg>
