<?xml version="1.0" encoding="utf-8"?>
<!-- Generator: Adobe Illustrator 19.0.0, SVG Export Plug-In . SVG Version: 6.00 Build 0)  -->
<svg version="1.1" id="Layer_1" xmlns="http://www.w3.org/2000/svg" xmlns:xlink="http://www.w3.org/1999/xlink" x="0px" y="0px"
	 viewBox="0 0 720 720" enable-background="new 0 0 720 720" xml:space="preserve">
<g id="XMLID_297_">
	<linearGradient id="XMLID_2_" gradientUnits="userSpaceOnUse" x1="185.8947" y1="661.5593" x2="534.1053" y2="58.4408">
		<stop  offset="0" style="stop-color:#FFFFFF"/>
		<stop  offset="0.1729" style="stop-color:#FAFCFE"/>
		<stop  offset="0.377" style="stop-color:#ECF2F9"/>
		<stop  offset="0.597" style="stop-color:#D4E1F2"/>
		<stop  offset="0.8266" style="stop-color:#B3CAE8"/>
		<stop  offset="1" style="stop-color:#95B5DF"/>
	</linearGradient>
	<ellipse id="XMLID_349_" fill="url(#XMLID_2_)" cx="360" cy="360" rx="347" ry="348.5"/>
	<g id="XMLID_321_">
		<g id="XMLID_342_">
			<g id="XMLID_347_">
				<polygon id="XMLID_348_" fill="#7095CD" points="281,607.1 281,607.1 341.6,407.2 351.6,407.6 358.6,413 				"/>
			</g>
			<g id="XMLID_345_">
				<polygon id="XMLID_346_" fill="#7095CD" points="321.1,410.9 286.7,571.9 286.7,571.9 336.8,408.8 				"/>
			</g>
			<g id="XMLID_343_">
				<polygon id="XMLID_344_" fill="#7095CD" points="371.2,429.6 298.7,575 298.7,575 360.6,417.8 				"/>
			</g>
		</g>
		<g id="XMLID_322_">
			<path id="XMLID_340_" fill="#333333" d="M316.3,347.4c0,0-0.3-7.6,0.5,42.8l38.1,6.8l35.2,15.8c28.6-33.8,29.4-33.6,29.4-33.6
				L316.3,347.4z"/>
			<path id="XMLID_338_" fill="#3F66B0" d="M497.3,221.9c3.9-84.8-38.9-145.2-38.9-145.2s-70.4,25.4-117,97
				c0,0-20.4,44.8-38.4,204.5l55.1,9.1l50.5,23.6C487.7,270.1,497.3,221.9,497.3,221.9z"/>
			<path id="XMLID_337_" fill="#233C77" d="M297,377.1l-25.4,19.7l-33.2-1.6c11.5-87.1,72.5-99,72.5-99L297,377.1z"/>
			<path id="XMLID_336_" fill="#233C77" d="M412.4,414.8l3.4,21.7l33.6,25.5c42.8-77.5,2.3-124.4,2.3-124.4L412.4,414.8z"/>
			<path id="XMLID_335_" fill="#233C77" d="M458.4,76.8c0,0-24.9,9.5-46.5,25.3c0,0,50.7,7.9,70.5,23.6
				C482.4,125.7,474.2,100.6,458.4,76.8z"/>
			<path id="XMLID_334_" fill="#233C77" d="M376.1,321.2c0,0-30.6,32-34.6,108.4c0,0,2.4-4.3,5.8-11.5
				C357.6,397,377.8,351.4,376.1,321.2z"/>
			<path id="XMLID_333_" fill="#233C77" d="M238.4,395.2"/>
			<path id="XMLID_332_" fill="#233C77" d="M341.4,173.7c0,0,71.5-4.9,155.9,48.2"/>
			<circle id="XMLID_331_" fill="#233C77" cx="410.7" cy="188.4" r="37.2"/>
			<circle id="XMLID_330_" fill="#FFFFFF" cx="410.7" cy="188.4" r="32.1"/>
			<circle id="XMLID_329_" fill="#233C77" cx="474.3" cy="136.8" r="4.2"/>
			<circle id="XMLID_328_" fill="#233C77" cx="480.5" cy="156.9" r="4.2"/>
			<circle id="XMLID_327_" fill="#233C77" cx="484.4" cy="177.8" r="4.2"/>
			<circle id="XMLID_326_" fill="#233C77" cx="485.8" cy="200.6" r="4.2"/>
			<path id="XMLID_325_" fill="#7797CE" d="M383.5,198.7c0,0-4.6-24.3,10.9-33.3c0,0,5.3-4,13.3-4.3
				C407.7,161.1,384.9,167.2,383.5,198.7z"/>
			<path id="XMLID_324_" fill="#BDD0EC" d="M355.2,164.8c0,0,27.5-37.7,55.9-53.1C411.1,111.7,381.3,137.1,355.2,164.8z"/>
			<path id="XMLID_323_" fill="#BDD0EC" d="M460.4,79.8c0,0-20.6,6.2-34.1,12.8c0,0,16.8-10.2,32.1-15.8
				C458.4,76.8,459.5,78.5,460.4,79.8z"/>
		</g>
	</g>
	
		<ellipse id="XMLID_320_" fill="none" stroke="#3F66B0" stroke-width="18" stroke-miterlimit="10" cx="360" cy="360" rx="347" ry="348.5"/>
	<g id="XMLID_299_">
		<defs>
			<ellipse id="XMLID_300_" cx="360" cy="360" rx="330.1" ry="331.6"/>
		</defs>
		<clipPath id="XMLID_3_">
			<use xlink:href="#XMLID_300_"  overflow="visible"/>
		</clipPath>
		<g id="XMLID_301_" clip-path="url(#XMLID_3_)">
			<circle id="XMLID_319_" fill="#5079BC" cx="126.5" cy="474.5" r="51.8"/>
			<circle id="XMLID_318_" fill="#5079BC" cx="224.1" cy="526.4" r="38.9"/>
			<circle id="XMLID_317_" fill="#5079BC" cx="187.1" cy="498.4" r="29.2"/>
			<circle id="XMLID_596_" fill="#5079BC" cx="71.7" cy="488.2" r="29.2"/>
			<ellipse id="XMLID_316_" fill="#5079BC" cx="390.5" cy="584.1" rx="68.5" ry="49.7"/>
			<ellipse id="XMLID_315_" fill="#5079BC" cx="290.1" cy="569.9" rx="50.4" ry="42.3"/>
			<ellipse id="XMLID_314_" fill="#5079BC" cx="497.4" cy="537.1" rx="70.9" ry="60.6"/>
			<ellipse id="XMLID_313_" fill="#5079BC" cx="279.3" cy="530.9" rx="31.9" ry="26.7"/>
			<ellipse id="XMLID_312_" fill="#375FA1" cx="130.2" cy="547.3" rx="76.3" ry="70.8"/>
			<ellipse id="XMLID_311_" fill="#375FA1" cx="237.1" cy="603.4" rx="63.5" ry="66.3"/>
			<ellipse id="XMLID_310_" fill="#375FA1" cx="346.2" cy="617.2" rx="45.5" ry="42.3"/>
			<ellipse id="XMLID_309_" fill="#375FA1" cx="468.6" cy="625.2" rx="78.1" ry="59.9"/>
			<ellipse id="XMLID_308_" fill="#375FA1" cx="544.1" cy="592.9" rx="35.8" ry="43.6"/>
			<ellipse id="XMLID_613_" fill="#375FA1" cx="579.9" cy="586.7" rx="35.8" ry="28.9"/>
			<ellipse id="XMLID_307_" fill="#294D80" cx="301.8" cy="627.5" rx="38.7" ry="36.6"/>
			<ellipse id="XMLID_306_" fill="#294D80" cx="173.6" cy="627.5" rx="64.5" ry="49.4"/>
			<ellipse id="XMLID_305_" fill="#294D80" cx="248.3" cy="662.9" rx="41.8" ry="50.7"/>
			<ellipse id="XMLID_304_" fill="#294D80" cx="356.9" cy="676.5" rx="73.9" ry="49"/>
			<ellipse id="XMLID_303_" fill="#294D80" cx="468.6" cy="686.9" rx="70.1" ry="61.7"/>
			<ellipse id="XMLID_302_" fill="#294D80" cx="86.6" cy="590.9" rx="56.7" ry="36"/>
		</g>
	</g>
	<path id="XMLID_298_" fill="#7095CD" d="M310,301.9c0,0-38.4,12.5-54,58.8C256.1,360.8,276,318.3,310,301.9z"/>
</g>
</svg>
